<svg width="99" height="99" viewBox="0 0 99 99" fill="none" xmlns="http://www.w3.org/2000/svg">
<path d="M42.8 95.9L39.4 87.3L38.4 87C35.8 86.2 33.2 85.2 30.8 83.8L29.9 83.3L21.4 87L11.9 77.5L15.6 69L15.1 68.1C13.8 65.7 12.7 63.1 11.9 60.5L11.6 59.6L3 56.2V42.8L11.6 39.4L11.9 38.5C12.7 35.9 13.8 33.3 15.1 30.9L15.6 30L11.9 21.5L21.4 12L29.9 15.7L30.8 15.2C33.2 13.9 35.8 12.8 38.4 12L39.3 11.7L42.8 3H56.2L59.6 11.6L60.5 11.9C63.1 12.7 65.7 13.7 68.1 15.1L69 15.6L77.5 11.9L87 21.4L83.3 29.9L83.8 30.8C85.1 33.2 86.2 35.8 87 38.4L87.3 39.3L95.9 42.7V56.1L87.3 59.5L87 60.5C86.2 63.1 85.1 65.7 83.8 68.1L83.4 69L87.1 77.5L77.6 87L69 83.4L68.1 83.9C65.7 85.2 63.1 86.3 60.5 87.1L59.6 87.4L56.2 96H42.8V95.9Z" stroke="#DBC897" stroke-width="2.5" stroke-linecap="round" stroke-linejoin="round"/>
</svg>
